<?xml version="1.0" encoding="UTF-8" standalone="no"?>
<!-- Created with Inkscape (http://www.inkscape.org/) -->
<svg id="svg2" xmlns:rdf="http://www.w3.org/1999/02/22-rdf-syntax-ns#" xmlns="http://www.w3.org/2000/svg" viewBox="0 0 511.76 132.6" version="1.1" xmlns:cc="http://creativecommons.org/ns#" xmlns:dc="http://purl.org/dc/elements/1.1/">
 <metadata id="metadata7">
  <rdf:RDF>
   <cc:Work rdf:about="">
    <dc:format>image/svg+xml</dc:format>
    <dc:type rdf:resource="http://purl.org/dc/dcmitype/StillImage"/>
    <dc:title/>
   </cc:Work>
  </rdf:RDF>
 </metadata>
 <g id="layer1" transform="translate(-20.069181,-155.87349)">
  <g id="text2985-1" style="letter-spacing:0px;word-spacing:0px;" font-weight="bold" font-size="72px" font-style="normal" font-stretch="normal" line-height="125%" font-variant="normal" font-family="Avenir LT Std 65 Medium" fill="#646464">
   <path id="path4111" fill="#646464" d="m303.48,273.22,22.464,0,0-82.079,29.088,0,0-19.872-80.639,0,0,19.872,29.088,0z"/>
  </g>
  <g id="text2985-4" style="letter-spacing:0px;word-spacing:0px;" font-weight="bold" font-size="72px" font-style="normal" font-stretch="normal" line-height="125%" font-variant="normal" font-family="Avenir LT Std 65 Medium" fill="#646464">
   <path id="path4108" fill="#646464" d="m380.17,242.52c-1.776,2.496-3.912,4.524-6.4079,6.0839-2.496,1.56-5.496,2.364-8.9999,2.412-4.224-0.051-7.7639-1.281-10.62-3.69-2.856-2.409-4.74-5.6909-5.6519-9.8459h50.111v-6.7679c-0.10808-11.295-3.06-20.205-8.8559-26.73-5.796-6.5248-13.788-9.8548-23.976-9.9899-11.07,0.13507-20.25,3.465-27.54,9.9899-7.2899,6.525-11.07,15.435-11.34,26.73,0.26999,11.295,4.0499,20.205,11.34,26.73,7.2899,6.5249,16.47,9.8549,27.54,9.9899,5.7119-0.027,11.172-1.233,16.38-3.618,5.2079-2.385,9.5878-5.7869,13.14-10.206zm-31.68-19.728c0.29397-3.5129,1.722-6.5669,4.284-9.1619,2.5619-2.5949,6.2219-3.9569,10.98-4.0859,3.9629,0.10205,7.1609,1.41,9.5939,3.924,2.4329,2.514,3.6509,5.622,3.654,9.3239z"/>
  </g>
  <g id="text2985-9-8" style="letter-spacing:0px;word-spacing:0px;" font-weight="bold" font-size="144px" font-style="normal" font-stretch="normal" line-height="125%" font-variant="normal" font-family="Avenir LT Std 65 Medium" fill="#646464">
   <path id="path4105" fill="#646464" d="m462.31,202.85c-3.486-3.4139-7.458-5.8379-11.916-7.2719-4.458-1.4339-8.7899-2.1299-12.996-2.088-11.07,0.13507-20.25,3.465-27.54,9.9899-7.2899,6.525-11.07,15.435-11.34,26.73,0.26999,11.295,4.0499,20.205,11.34,26.73,7.2899,6.5249,16.47,9.8549,27.54,9.9899,4.2059,0.042,8.5378-0.654,12.996-2.088,4.4579-1.434,8.4298-3.858,11.916-7.2719l-14.256-14.976c-1.218,1.482-2.706,2.73-4.4639,3.744-1.758,1.014-3.822,1.542-6.1919,1.584-5.445-0.081-9.6749-1.719-12.69-4.9139-3.015-3.1949-4.545-7.4609-4.5899-12.798,0.045-5.3369,1.575-9.6028,4.5899-12.798,3.0149-3.1949,7.2449-4.8329,12.69-4.9139,2.2619,0.0331,4.3259,0.54305,6.1919,1.53,1.8659,0.98704,3.3539,2.253,4.4639,3.798z"/>
  </g>
  <g id="text2985-2" style="letter-spacing:0px;word-spacing:0px;" font-family="Avenir LT Std 65 Medium" font-weight="bold" font-size="132px" font-style="normal" stroke="#000000" font-stretch="normal" stroke-miterlimit="4" line-height="125%" font-variant="normal" stroke-width="0.5" fill="#ffffff">
   <path id="path4102" fill="#ffffff" d="m201.38,185.37c-4.1278-5.0186-9.0722-8.577-14.833-10.675-5.7612-2.0981-11.333-3.1156-16.714-3.0525-14.864,0.17334-26.914,4.6118-36.151,13.315-9.2371,8.7037-13.995,20.633-14.272,35.788,0.27774,15.155,5.0352,27.084,14.272,35.788,9.2371,8.7036,21.287,13.142,36.151,13.315,6.5228,0.0165,12.782-1.3035,18.777-3.96,5.9948-2.6565,11-6.7484,15.015-12.276l-17.16-12.804c-2.1313,3.19-4.8318,5.654-8.1014,7.3919-3.2698,1.738-6.9932,2.618-11.17,2.64-7.6257-0.16498-13.89-3.0029-18.793-8.5139-4.9032-5.5109-7.4387-12.705-7.6064-21.582,0.15397-8.8768,2.7169-16.071,7.6889-21.582,4.9719-5.5108,11.429-8.3488,19.371-8.5139,3.8306,0.0138,7.2241,0.67932,10.18,1.9965,2.9562,1.3173,5.4586,3.2038,7.5074,5.6594z" stroke="#000000"/>
  </g>
  <g id="text2985-5" font-size="132px" stroke="#000000" font-family="Avenir LT Std 65 Medium" fill="#ffffff" style="letter-spacing:0px;word-spacing:0px;" stroke-width="0.5" font-style="normal" font-stretch="normal" stroke-miterlimit="4" font-variant="normal" font-weight="bold" line-height="125%">
   <path id="path3962" d="m186.36,240.94,17.093,12.945c5.5982-6.6778,15.014-31.154,24.242-53.56h-19.8zm19.951-60.811c0.0825,3.2505,1.2045,5.9565,3.366,8.1179,2.1615,2.1615,4.8674,3.2835,8.1179,3.366,3.2504-0.0824,5.9564-1.2044,8.1179-3.366,2.1614-2.1614,3.2834-4.8674,3.366-8.1179-0.0825-3.2504-1.2045-5.9563-3.366-8.1179-2.1615-2.1614-4.8675-3.2834-8.1179-3.366-3.2505,0.0826-5.9564,1.2046-8.1179,3.366-2.1615,2.1616-3.2835,4.8675-3.366,8.1179z" stroke="#000000" fill="#ffffff"/>
  </g>
  <g id="text2985-7" style="letter-spacing:0px;word-spacing:0px;" font-family="Avenir LT Std 65 Medium" font-weight="bold" font-size="132px" font-style="normal" stroke="#000000" font-stretch="normal" stroke-miterlimit="4" line-height="125%" font-variant="normal" stroke-width="0.5" fill="#ffffff">
   <path id="path4099" fill="#ffffff" d="m252.19,264.47,20.988,0,25.344-64.151-19.932,0-15.048,43.559-0.264,0-16.236-43.559-21.384,0z" stroke="#000000"/>
  </g>
  <g id="text2985-9-8-7" style="letter-spacing:0px;word-spacing:0px;" font-weight="bold" font-size="72px" font-style="normal" font-stretch="normal" line-height="125%" font-variant="normal" font-family="Avenir LT Std 65 Medium" fill="#646464">
   <path id="path4096" fill="#646464" d="m461.01,158.87,0,108.86,21.6,0,0-34.848c-0.16203-4.7129,0.59396-8.8228,2.268-12.33,1.674-3.5069,5.2379-5.3489,10.692-5.5259,5.3189,0.26405,8.5768,2.328,9.7739,6.1919,1.1969,3.864,1.6829,7.9439,1.458,12.24v34.272h21.6v-38.592c0.28792-9.5698-1.2961-17.43-4.7519-23.58-3.456-6.1498-10.512-9.3298-21.168-9.5399-5.289,0.12607-9.6149,1.314-12.978,3.564-3.363,2.25-5.565,4.806-6.6059,7.6679h-0.28799v-48.383z"/>
  </g>
  <g id="text2985-9-7" style="letter-spacing:0px;word-spacing:0px;" font-weight="bold" font-size="72px" font-style="normal" font-stretch="normal" line-height="125%" font-variant="normal" font-family="Avenir LT Std 65 Medium" fill="#646464">
   <path id="path4093" fill="#646464" d="m204.56,180.09c0.093,3.765,1.383,6.8909,3.87,9.3779s5.6129,3.777,9.3779,3.87c3.7649-0.093,6.8909-1.383,9.3779-3.87,2.4869-2.487,3.7769-5.6129,3.87-9.3779-0.093-3.7649-1.383-6.8909-3.87-9.3779s-5.613-3.7769-9.3779-3.87c-3.765,0.093-6.8909,1.383-9.3779,3.87s-3.777,5.6129-3.87,9.3779z"/>
  </g>
  <g id="text2985-9-7-5" style="letter-spacing:0px;word-spacing:0px;" font-family="Avenir LT Std 65 Medium" font-weight="bold" font-size="72px" font-style="normal" stroke="#000000" font-stretch="normal" stroke-miterlimit="4" line-height="125%" font-variant="normal" stroke-width="0.5" fill="#ffffff">
   <path id="path4090" fill="#ffffff" d="m389.24,271.08c0.0852,3.4512,1.2677,6.3167,3.5475,8.5964,2.2797,2.2797,5.1452,3.4622,8.5964,3.5475,3.4512-0.0852,6.3166-1.2677,8.5964-3.5475,2.2797-2.2797,3.4622-5.1452,3.5475-8.5964-0.0853-3.4512-1.2678-6.3166-3.5474-8.5964-2.2798-2.2797-5.1452-3.4622-8.5964-3.5474-3.4512,0.0853-6.3167,1.2678-8.5964,3.5475s-3.4622,5.1452-3.5475,8.5964z" stroke="#000000"/>
  </g>
  <path id="rect3951" fill="#ffffff" d="m194.13,236.97,2.0786,0c5.1247,0,9.2503,4.1256,9.2503,9.2503v1.5298c0,5.1247-4.1256,9.2503-9.2503,9.2503h-2.0786c-5.1247,0-9.2503-4.1256-9.2503-9.2503v-1.5298c0-5.1247,4.1256-9.2503,9.2503-9.2503z"/>
  <path id="rect3951-8" d="m217.42,199.87,18.936,0c0.55292,0,0.99806,0.44514,0.99806,0.99806,0,0.55293-0.44514,0.99806-0.99806,0.99806h-18.936c-0.55292,0-0.99806-0.44513-0.99806-0.99806,0-0.55292,0.44514-0.99806,0.99806-0.99806z" transform="matrix(0.99999434,0.00336516,0,1,0,0)" fill="#ffffff"/>
  <g id="text2985-9-7-5-6" style="letter-spacing:0px;word-spacing:0px;" font-family="Avenir LT Std 65 Medium" font-weight="bold" transform="scale(0.99988552,1.0001145)" stroke="#000000" font-stretch="normal" stroke-miterlimit="4" line-height="125%" font-size="101.38602448px" font-variant="normal" stroke-width="0.5" font-style="normal" fill="#ffffff">
   <path id="path4085" fill="#ffffff" d="m64.898,238.76c0.12003,4.8598,1.7851,8.8948,4.9953,12.105,3.2101,3.2102,7.2451,4.8753,12.105,4.9953,4.8597-0.12004,8.8947-1.7851,12.105-4.9953,3.2101-3.2102,4.8752-7.2451,4.9953-12.105-0.12009-4.8598-1.7852-8.8947-4.9953-12.105-3.2102-3.2101-7.2452-4.8752-12.105-4.9953-4.8598,0.12007-8.8948,1.7852-12.105,4.9953-3.2102,3.2102-4.8753,7.2452-4.9953,12.105z" stroke="#000000"/>
  </g>
  <g id="text2985-9-7-0" style="letter-spacing:0px;word-spacing:0px;" font-weight="bold" transform="scale(0.99988553,1.0001145)" font-stretch="normal" line-height="125%" font-size="101.38602448px" font-variant="normal" font-family="Avenir LT Std 65 Medium" font-style="normal" fill="#646464">
   <path id="path4082" fill="#646464" d="m30.172,206.7c0.13095,5.3016,1.9474,9.7034,5.4494,13.205,3.502,3.502,7.9038,5.3185,13.205,5.4494,5.3015-0.13095,9.7033-1.9474,13.205-5.4494,3.5019-3.502,5.3184-7.9038,5.4494-13.205-0.131-5.3016-1.9475-9.7033-5.4494-13.205-3.502-3.502-7.9038-5.3184-13.205-5.4494-5.3016,0.13099-9.7034,1.9475-13.205,5.4494-3.502,3.502-5.3185,7.9038-5.4494,13.205z"/>
  </g>
  <path id="rect4072" d="m33.288,179.49,62.843,0c5.5227,0,9.9687,4.446,9.9687,9.9687v64.725c0,5.5227-4.446,9.9687-9.9687,9.9687h-62.843c-5.5227,0-9.9687-4.446-9.9687-9.9687v-64.725c0-5.5227,4.446-9.9687,9.9687-9.9687z" stroke="#373737" stroke-miterlimit="4" stroke-width="0.5" fill="none"/>
 </g>
</svg>
