<svg xmlns:rdf="http://www.w3.org/1999/02/22-rdf-syntax-ns#" xmlns="http://www.w3.org/2000/svg" version="1.1" xmlns:cc="http://creativecommons.org/ns#" xmlns:dc="http://purl.org/dc/elements/1.1/" viewBox="0 0 83.280402 85.162398">
 <g transform="translate(47.354 -241.21)">
  <path id="path4085" d="m-5.5332 300.76c0.12002 4.8604 1.7849 8.8958 4.9947 12.106 3.2097 3.2106 7.2443 4.8759 12.104 4.9959 4.8591-0.12005 8.8937-1.7853 12.104-4.9959 3.2097-3.2106 4.8746-7.2459 4.9947-12.106-0.12008-4.8604-1.785-8.8957-4.9947-12.106-3.2098-3.2105-7.2444-4.8758-12.104-4.9959-4.8592 0.12008-8.8938 1.7854-12.104 4.9959-3.2098 3.2106-4.8747 7.246-4.9947 12.106z" stroke="#000000" fill="#ffffff"/>
  <path id="path4082" d="m-40.255 268.69c0.13094 5.3022 1.9472 9.7045 5.4488 13.207 3.5016 3.5024 7.9029 5.3191 13.203 5.45 5.3009-0.13097 9.7022-1.9476 13.203-5.45 3.5015-3.5024 5.3178-7.9047 5.4488-13.207-0.13098-5.3022-1.9473-9.7044-5.4488-13.207-3.5016-3.5024-7.9029-5.319-13.203-5.45-5.301 0.131-9.7023 1.9477-13.203 5.45-3.5016 3.5024-5.3179 7.9047-5.4488 13.207z" fill="#646464"/>
 </g>
</svg>
